ffmpeg started on 2025-06-06 at 20:37:09
Report written to "D:\Convert\FFMetrics\reports\psnr_report-6.txt"
Log level: 32
Command line:
ffmpeg -hide_banner -nostdin -i "G:\\\xc0\xed\xe8\xec\xe5\\\xce\xed\xe3\xee\xe8\xed\xe3\xe8\\!_36_\xce\xf1\xe5\xed\xfc_2024\\DreamCast\\\xd2\xe5\xf2\xf0\xe0\xe4\xfc \xe4\xf0\xf3\xe6\xe1\xfb \xcd\xe0\xf6\xf3\xec\xfd [\xd2\xc2-7]\\[DC] Natsume Yuujinchou Shichi - 05_Telegram_HEVC.mkv" -i "G:\\\xc0\xed\xe8\xec\xe5\\\xce\xed\xe3\xee\xe8\xed\xe3\xe8\\!_36_\xce\xf1\xe5\xed\xfc_2024\\DreamCast\\\xd2\xe5\xf2\xf0\xe0\xe4\xfc \xe4\xf0\xf3\xe6\xe1\xfb \xcd\xe0\xf6\xf3\xec\xfd [\xd2\xc2-7]\\[DC] Natsume Yuujinchou Shichi - 05_Telegram.mp4" -lavfi "[0:v]settb=AVTB,setpts=PTS-STARTPTS,format=pix_fmts=yuv420p10,fps=24000/1001,scale=1920:1080:flags=bicubic[main];[1:v]settb=AVTB,setpts=PTS-STARTPTS,format=pix_fmts=yuv420p,fps=24000/1001,scale=1920:1080:flags=bicubic[ref];[main][ref]psnr=eof_action=endall:stats_file='D\\:/Convert/FFMetrics/logs/psnr_logfile-6.txt'" -f null -
Input #0, matroska,webm, from 'G:\Аниме\Онгоинги\!_36_Осень_2024\DreamCast\Тетрадь дружбы Нацумэ [ТВ-7]\[DC] Natsume Yuujinchou Shichi - 05_Telegram_HEVC.mkv':
  Metadata:
    COMPATIBLE_BRANDS: isomiso2avc1mp41
    MAJOR_BRAND     : isom
    MINOR_VERSION   : 512
    ENCODER         : Lavf61.7.100
  Duration: 00:23:58.34, start: -0.021000, bitrate: 1071 kb/s
  Stream #0:0: Video: hevc (Main 10), yuv420p10le(tv, bt709, progressive), 1920x1080 [SAR 1:1 DAR 16:9], 23.98 fps, 23.98 tbr, 1k tbn (default)
      Metadata:
        HANDLER_NAME    : VideoHandler
        VENDOR_ID       : [0][0][0][0]
        ENCODER         : Lavc61.19.100 libx265
        BPS             : 875453
        DURATION        : 00:23:56.559708333
        NUMBER_OF_FRAMES: 34443
        NUMBER_OF_BYTES : 157205109
        _STATISTICS_WRITING_APP: mkvpropedit v66.0.0 ('Josie') 64-bit
        _STATISTICS_WRITING_DATE_UTC: 2025-06-04 14:59:00
        _STATISTICS_TAGS: BPS DURATION NUMBER_OF_FRAMES NUMBER_OF_BYTES
  Stream #0:1: Audio: aac (LC), 48000 Hz, stereo, fltp (default)
      Metadata:
        HANDLER_NAME    : SoundHandler
        VENDOR_ID       : [0][0][0][0]
        ENCODER         : Lavc61.19.100 aac
        BPS             : 193169
        DURATION        : 00:23:58.336000000
        NUMBER_OF_FRAMES: 67423
        NUMBER_OF_BYTES : 34730369
        _STATISTICS_WRITING_APP: mkvpropedit v66.0.0 ('Josie') 64-bit
        _STATISTICS_WRITING_DATE_UTC: 2025-06-04 14:59:00
        _STATISTICS_TAGS: BPS DURATION NUMBER_OF_FRAMES NUMBER_OF_BYTES
Input #1, mov,mp4,m4a,3gp,3g2,mj2, from 'G:\Аниме\Онгоинги\!_36_Осень_2024\DreamCast\Тетрадь дружбы Нацумэ [ТВ-7]\[DC] Natsume Yuujinchou Shichi - 05_Telegram.mp4':
  Metadata:
    major_brand     : isom
    minor_version   : 512
    compatible_brands: isomiso2avc1mp41
    encoder         : Lavf61.1.100
  Duration: 00:23:58.28, start: 0.000000, bitrate: 3565 kb/s
  Stream #1:0[0x1](und): Video: h264 (High) (avc1 / 0x31637661), yuv420p(tv, bt709, progressive), 1920x1080 [SAR 1:1 DAR 16:9], 3422 kb/s, 23.98 fps, 23.98 tbr, 24k tbn (default)
      Metadata:
        handler_name    : VideoHandler
        vendor_id       : [0][0][0][0]
        encoder         : Lavc61.3.100 h264_qsv
  Stream #1:1[0x2](und): Audio: aac (HE-AACv2) (mp4a / 0x6134706D), 48000 Hz, stereo, fltp, 144 kb/s (default)
      Metadata:
        handler_name    : SoundHandler
        vendor_id       : [0][0][0][0]
Stream mapping:
  Stream #0:0 (hevc) -> settb:default
  Stream #1:0 (h264) -> settb:default
  psnr:default -> Stream #0:0 (wrapped_avframe)
  Stream #0:1 -> #0:1 (aac (native) -> pcm_s16le (native))
Output #0, null, to 'pipe:':
  Metadata:
    COMPATIBLE_BRANDS: isomiso2avc1mp41
    MAJOR_BRAND     : isom
    MINOR_VERSION   : 512
    encoder         : Lavf61.7.100
  Stream #0:0: Video: wrapped_avframe, yuv420p10le(tv, bt709, progressive), 1920x1080 [SAR 1:1 DAR 16:9], q=2-31, 200 kb/s, 23.98 fps, 23.98 tbn
      Metadata:
        encoder         : Lavc61.19.100 wrapped_avframe
  Stream #0:1: Audio: pcm_s16le, 48000 Hz, stereo, s16, 1536 kb/s (default)
      Metadata:
        HANDLER_NAME    : SoundHandler
        VENDOR_ID       : [0][0][0][0]
        _STATISTICS_TAGS: BPS DURATION NUMBER_OF_FRAMES NUMBER_OF_BYTES
        BPS             : 193169
        DURATION        : 00:23:58.336000000
        NUMBER_OF_FRAMES: 67423
        NUMBER_OF_BYTES : 34730369
        _STATISTICS_WRITING_APP: mkvpropedit v66.0.0 ('Josie') 64-bit
        _STATISTICS_WRITING_DATE_UTC: 2025-06-04 14:59:00
        encoder         : Lavc61.19.100 pcm_s16le
frame=  163 fps=0.0 q=-0.0 size=N/A time=00:00:06.79 bitrate=N/A speed=13.1x    frame=  327 fps=314 q=-0.0 size=N/A time=00:00:13.63 bitrate=N/A speed=13.1x    frame=  503 fps=326 q=-0.0 size=N/A time=00:00:20.97 bitrate=N/A speed=13.6x    frame=  739 fps=357 q=-0.0 size=N/A time=00:00:30.82 bitrate=N/A speed=14.9x    frame=  924 fps=357 q=-0.0 size=N/A time=00:00:38.53 bitrate=N/A speed=14.9x    frame= 1158 fps=374 q=-0.0 size=N/A time=00:00:48.29 bitrate=N/A speed=15.6x    frame= 1330 fps=368 q=-0.0 size=N/A time=00:00:55.47 bitrate=N/A speed=15.3x    frame= 1547 fps=375 q=-0.0 size=N/A time=00:01:04.52 bitrate=N/A speed=15.6x    frame= 1744 fps=375 q=-0.0 size=N/A time=00:01:12.73 bitrate=N/A speed=15.6x    frame= 1926 fps=373 q=-0.0 size=N/A time=00:01:20.33 bitrate=N/A speed=15.6x    frame= 2138 fps=376 q=-0.0 size=N/A time=00:01:29.17 bitrate=N/A speed=15.7x    frame= 2345 fps=379 q=-0.0 size=N/A time=00:01:37.80 bitrate=N/A speed=15.8x    frame= 2569 fps=383 q=-0.0 size=N/A time=00:01:47.14 bitrate=N/A speed=  16x    frame= 2813 fps=389 q=-0.0 size=N/A time=00:01:57.32 bitrate=N/A speed=16.2x    frame= 3090 fps=398 q=-0.0 size=N/A time=00:02:08.87 bitrate=N/A speed=16.6x    frame= 3341 fps=404 q=-0.0 size=N/A time=00:02:19.34 bitrate=N/A speed=16.9x    frame= 3571 fps=406 q=-0.0 size=N/A time=00:02:28.94 bitrate=N/A speed=16.9x    frame= 3834 fps=412 q=-0.0 size=N/A time=00:02:39.90 bitrate=N/A speed=17.2x    frame= 4120 fps=420 q=-0.0 size=N/A time=00:02:51.83 bitrate=N/A speed=17.5x    frame= 4381 fps=424 q=-0.0 size=N/A time=00:03:02.72 bitrate=N/A speed=17.7x    frame= 4648 fps=428 q=-0.0 size=N/A time=00:03:13.86 bitrate=N/A speed=17.9x    frame= 4883 fps=430 q=-0.0 size=N/A time=00:03:23.66 bitrate=N/A speed=17.9x    frame= 5146 fps=433 q=-0.0 size=N/A time=00:03:34.63 bitrate=N/A speed=18.1x    frame= 5425 fps=437 q=-0.0 size=N/A time=00:03:46.26 bitrate=N/A speed=18.2x    frame= 5702 fps=442 q=-0.0 size=N/A time=00:03:57.82 bitrate=N/A speed=18.4x    frame= 5910 fps=440 q=-0.0 size=N/A time=00:04:06.49 bitrate=N/A speed=18.3x    frame= 6115 fps=439 q=-0.0 size=N/A time=00:04:15.04 bitrate=N/A speed=18.3x    frame= 6357 fps=440 q=-0.0 size=N/A time=00:04:25.13 bitrate=N/A speed=18.3x    frame= 6614 fps=442 q=-0.0 size=N/A time=00:04:35.85 bitrate=N/A speed=18.4x    frame= 6892 fps=445 q=-0.0 size=N/A time=00:04:47.45 bitrate=N/A speed=18.6x    frame= 7129 fps=445 q=-0.0 size=N/A time=00:04:57.33 bitrate=N/A speed=18.6x    frame= 7357 fps=445 q=-0.0 size=N/A time=00:05:06.84 bitrate=N/A speed=18.6x    frame= 7618 fps=447 q=-0.0 size=N/A time=00:05:17.73 bitrate=N/A speed=18.6x    frame= 7854 fps=447 q=-0.0 size=N/A time=00:05:27.57 bitrate=N/A speed=18.6x    frame= 8117 fps=449 q=-0.0 size=N/A time=00:05:38.54 bitrate=N/A speed=18.7x    frame= 8362 fps=450 q=-0.0 size=N/A time=00:05:48.76 bitrate=N/A speed=18.7x    frame= 8640 fps=452 q=-0.0 size=N/A time=00:06:00.36 bitrate=N/A speed=18.9x    frame= 8927 fps=455 q=-0.0 size=N/A time=00:06:12.33 bitrate=N/A speed=  19x    frame= 9211 fps=457 q=-0.0 size=N/A time=00:06:24.17 bitrate=N/A speed=19.1x    frame= 9475 fps=459 q=-0.0 size=N/A time=00:06:35.18 bitrate=N/A speed=19.1x    frame= 9760 fps=461 q=-0.0 size=N/A time=00:06:47.07 bitrate=N/A speed=19.2x    frame=10044 fps=463 q=-0.0 size=N/A time=00:06:58.91 bitrate=N/A speed=19.3x    frame=10341 fps=466 q=-0.0 size=N/A time=00:07:11.30 bitrate=N/A speed=19.4x    frame=10636 fps=468 q=-0.0 size=N/A time=00:07:23.60 bitrate=N/A speed=19.5x    frame=10935 fps=471 q=-0.0 size=N/A time=00:07:36.08 bitrate=N/A speed=19.6x    frame=11200 fps=471 q=-0.0 size=N/A time=00:07:47.13 bitrate=N/A speed=19.7x    frame=11480 fps=473 q=-0.0 size=N/A time=00:07:58.81 bitrate=N/A speed=19.7x    frame=11749 fps=474 q=-0.0 size=N/A time=00:08:10.03 bitrate=N/A speed=19.8x    frame=12008 fps=475 q=-0.0 size=N/A time=00:08:20.83 bitrate=N/A speed=19.8x    frame=12262 fps=475 q=-0.0 size=N/A time=00:08:31.42 bitrate=N/A speed=19.8x    frame=12471 fps=474 q=-0.0 size=N/A time=00:08:40.14 bitrate=N/A speed=19.7x    frame=12728 fps=474 q=-0.0 size=N/A time=00:08:50.86 bitrate=N/A speed=19.8x    frame=12973 fps=474 q=-0.0 size=N/A time=00:09:01.08 bitrate=N/A speed=19.8x    frame=13218 fps=474 q=-0.0 size=N/A time=00:09:11.30 bitrate=N/A speed=19.8x    frame=13478 fps=475 q=-0.0 size=N/A time=00:09:22.14 bitrate=N/A speed=19.8x    frame=13755 fps=476 q=-0.0 size=N/A time=00:09:33.69 bitrate=N/A speed=19.8x    frame=14023 fps=477 q=-0.0 size=N/A time=00:09:44.87 bitrate=N/A speed=19.9x    frame=14294 fps=477 q=-0.0 size=N/A time=00:09:56.17 bitrate=N/A speed=19.9x    frame=14544 fps=477 q=-0.0 size=N/A time=00:10:06.60 bitrate=N/A speed=19.9x    frame=14808 fps=478 q=-0.0 size=N/A time=00:10:17.61 bitrate=N/A speed=19.9x    frame=15089 fps=479 q=-0.0 size=N/A time=00:10:29.33 bitrate=N/A speed=  20x    frame=15354 fps=480 q=-0.0 size=N/A time=00:10:40.38 bitrate=N/A speed=  20x    frame=15621 fps=480 q=-0.0 size=N/A time=00:10:51.52 bitrate=N/A speed=  20x    frame=15911 fps=482 q=-0.0 size=N/A time=00:11:03.62 bitrate=N/A speed=20.1x    frame=16158 fps=482 q=-0.0 size=N/A time=00:11:13.92 bitrate=N/A speed=20.1x    frame=16447 fps=483 q=-0.0 size=N/A time=00:11:25.97 bitrate=N/A speed=20.1x    frame=16718 fps=484 q=-0.0 size=N/A time=00:11:37.27 bitrate=N/A speed=20.2x    frame=17019 fps=485 q=-0.0 size=N/A time=00:11:49.83 bitrate=N/A speed=20.2x    frame=17292 fps=486 q=-0.0 size=N/A time=00:12:01.22 bitrate=N/A speed=20.2x    frame=17583 fps=487 q=-0.0 size=N/A time=00:12:13.35 bitrate=N/A speed=20.3x    frame=17835 fps=487 q=-0.0 size=N/A time=00:12:23.86 bitrate=N/A speed=20.3x    frame=18084 fps=487 q=-0.0 size=N/A time=00:12:34.25 bitrate=N/A speed=20.3x    frame=18339 fps=487 q=-0.0 size=N/A time=00:12:44.88 bitrate=N/A speed=20.3x    frame=18573 fps=486 q=-0.0 size=N/A time=00:12:54.64 bitrate=N/A speed=20.3x    frame=18801 fps=486 q=-0.0 size=N/A time=00:13:04.15 bitrate=N/A speed=20.3x    frame=19014 fps=485 q=-0.0 size=N/A time=00:13:13.04 bitrate=N/A speed=20.2x    frame=19258 fps=485 q=-0.0 size=N/A time=00:13:23.21 bitrate=N/A speed=20.2x    frame=19524 fps=485 q=-0.0 size=N/A time=00:13:34.31 bitrate=N/A speed=20.2x    frame=19769 fps=485 q=-0.0 size=N/A time=00:13:44.53 bitrate=N/A speed=20.2x    frame=20017 fps=485 q=-0.0 size=N/A time=00:13:54.87 bitrate=N/A speed=20.2x    frame=20279 fps=485 q=-0.0 size=N/A time=00:14:05.80 bitrate=N/A speed=20.2x    frame=20569 fps=486 q=-0.0 size=N/A time=00:14:17.89 bitrate=N/A speed=20.3x    frame=20830 fps=486 q=-0.0 size=N/A time=00:14:28.78 bitrate=N/A speed=20.3x    frame=21106 fps=487 q=-0.0 size=N/A time=00:14:40.29 bitrate=N/A speed=20.3x    frame=21370 fps=487 q=-0.0 size=N/A time=00:14:51.30 bitrate=N/A speed=20.3x    frame=21604 fps=487 q=-0.0 size=N/A time=00:15:01.06 bitrate=N/A speed=20.3x    frame=21778 fps=485 q=-0.0 size=N/A time=00:15:08.32 bitrate=N/A speed=20.2x    frame=22027 fps=485 q=-0.0 size=N/A time=00:15:18.70 bitrate=N/A speed=20.2x    frame=22303 fps=486 q=-0.0 size=N/A time=00:15:30.22 bitrate=N/A speed=20.3x    frame=22581 fps=486 q=-0.0 size=N/A time=00:15:41.81 bitrate=N/A speed=20.3x    frame=22822 fps=486 q=-0.0 size=N/A time=00:15:51.86 bitrate=N/A speed=20.3x    frame=23088 fps=486 q=-0.0 size=N/A time=00:16:02.96 bitrate=N/A speed=20.3x    frame=23314 fps=486 q=-0.0 size=N/A time=00:16:12.38 bitrate=N/A speed=20.3x    frame=23485 fps=484 q=-0.0 size=N/A time=00:16:19.52 bitrate=N/A speed=20.2x    frame=23621 fps=482 q=-0.0 size=N/A time=00:16:25.19 bitrate=N/A speed=20.1x    frame=23763 fps=480 q=-0.0 size=N/A time=00:16:31.11 bitrate=N/A speed=  20x    frame=23966 fps=479 q=-0.0 size=N/A time=00:16:39.58 bitrate=N/A speed=  20x    frame=24204 fps=479 q=-0.0 size=N/A time=00:16:49.50 bitrate=N/A speed=  20x    frame=24456 fps=479 q=-0.0 size=N/A time=00:17:00.01 bitrate=N/A speed=  20x    frame=24729 fps=479 q=-0.0 size=N/A time=00:17:11.40 bitrate=N/A speed=  20x    frame=25007 fps=480 q=-0.0 size=N/A time=00:17:23.00 bitrate=N/A speed=  20x    frame=25265 fps=480 q=-0.0 size=N/A time=00:17:33.76 bitrate=N/A speed=  20x    frame=25550 fps=481 q=-0.0 size=N/A time=00:17:45.64 bitrate=N/A speed=20.1x    frame=25818 fps=481 q=-0.0 size=N/A time=00:17:56.82 bitrate=N/A speed=20.1x    frame=26057 fps=481 q=-0.0 size=N/A time=00:18:06.79 bitrate=N/A speed=20.1x    frame=26312 fps=481 q=-0.0 size=N/A time=00:18:17.42 bitrate=N/A speed=20.1x    frame=26566 fps=481 q=-0.0 size=N/A time=00:18:28.02 bitrate=N/A speed=20.1x    frame=26826 fps=481 q=-0.0 size=N/A time=00:18:38.86 bitrate=N/A speed=20.1x    frame=27072 fps=481 q=-0.0 size=N/A time=00:18:49.12 bitrate=N/A speed=20.1x    frame=27313 fps=481 q=-0.0 size=N/A time=00:18:59.17 bitrate=N/A speed=20.1x    frame=27568 fps=481 q=-0.0 size=N/A time=00:19:09.81 bitrate=N/A speed=20.1x    frame=27809 fps=481 q=-0.0 size=N/A time=00:19:19.86 bitrate=N/A speed=20.1x    frame=28073 fps=481 q=-0.0 size=N/A time=00:19:30.87 bitrate=N/A speed=20.1x    frame=28330 fps=482 q=-0.0 size=N/A time=00:19:41.59 bitrate=N/A speed=20.1x    frame=28591 fps=482 q=-0.0 size=N/A time=00:19:52.48 bitrate=N/A speed=20.1x    frame=28823 fps=482 q=-0.0 size=N/A time=00:20:02.15 bitrate=N/A speed=20.1x    frame=29088 fps=482 q=-0.0 size=N/A time=00:20:13.21 bitrate=N/A speed=20.1x    frame=29379 fps=483 q=-0.0 size=N/A time=00:20:25.34 bitrate=N/A speed=20.1x    frame=29663 fps=483 q=-0.0 size=N/A time=00:20:37.19 bitrate=N/A speed=20.2x    frame=29925 fps=483 q=-0.0 size=N/A time=00:20:48.12 bitrate=N/A speed=20.2x    frame=30141 fps=483 q=-0.0 size=N/A time=00:20:57.13 bitrate=N/A speed=20.1x    frame=30413 fps=483 q=-0.0 size=N/A time=00:21:08.47 bitrate=N/A speed=20.2x    frame=30644 fps=483 q=-0.0 size=N/A time=00:21:18.11 bitrate=N/A speed=20.1x    frame=30848 fps=482 q=-0.0 size=N/A time=00:21:26.61 bitrate=N/A speed=20.1x    frame=31071 fps=482 q=-0.0 size=N/A time=00:21:35.91 bitrate=N/A speed=20.1x    frame=31337 fps=482 q=-0.0 size=N/A time=00:21:47.01 bitrate=N/A speed=20.1x    frame=31613 fps=482 q=-0.0 size=N/A time=00:21:58.52 bitrate=N/A speed=20.1x    frame=31851 fps=482 q=-0.0 size=N/A time=00:22:08.45 bitrate=N/A speed=20.1x    frame=32093 fps=482 q=-0.0 size=N/A time=00:22:18.54 bitrate=N/A speed=20.1x    frame=32316 fps=482 q=-0.0 size=N/A time=00:22:27.84 bitrate=N/A speed=20.1x    frame=32566 fps=482 q=-0.0 size=N/A time=00:22:38.27 bitrate=N/A speed=20.1x    frame=32802 fps=482 q=-0.0 size=N/A time=00:22:48.11 bitrate=N/A speed=20.1x    frame=33077 fps=482 q=-0.0 size=N/A time=00:22:59.58 bitrate=N/A speed=20.1x    frame=33327 fps=482 q=-0.0 size=N/A time=00:23:10.01 bitrate=N/A speed=20.1x    frame=33572 fps=482 q=-0.0 size=N/A time=00:23:20.23 bitrate=N/A speed=20.1x    frame=33826 fps=482 q=-0.0 size=N/A time=00:23:30.82 bitrate=N/A speed=20.1x    frame=34058 fps=482 q=-0.0 size=N/A time=00:23:40.50 bitrate=N/A speed=20.1x    frame=34279 fps=481 q=-0.0 size=N/A time=00:23:49.71 bitrate=N/A speed=20.1x    [Parsed_psnr_10 @ 000001948d161340] PSNR y:48.821280 u:49.544924 v:50.755317 average:49.209340 min:43.275383 max:inf
[out#0/null @ 000001948d1146c0] video:14800KiB audio:269692KiB subtitle:0KiB other streams:0KiB global headers:0KiB muxing overhead: unknown
frame=34443 fps=481 q=-0.0 Lsize=N/A time=00:23:56.56 bitrate=N/A speed=20.1x    
